<svg width="20" height="20" viewBox="0 0 20 20" fill="none" xmlns="http://www.w3.org/2000/svg">
<path d="M9.99999 11.6667C9.30555 11.6667 8.71527 11.4236 8.22916 10.9375C7.74305 10.4514 7.49999 9.86111 7.49999 9.16666V4.16666C7.49999 3.47222 7.74305 2.88194 8.22916 2.39583C8.71527 1.90972 9.30555 1.66666 9.99999 1.66666C10.6944 1.66666 11.2847 1.90972 11.7708 2.39583C12.2569 2.88194 12.5 3.47222 12.5 4.16666V9.16666C12.5 9.86111 12.2569 10.4514 11.7708 10.9375C11.2847 11.4236 10.6944 11.6667 9.99999 11.6667ZM9.16666 17.5V14.9375C7.72221 14.7431 6.52777 14.0972 5.58332 13C4.63888 11.9028 4.16666 10.625 4.16666 9.16666H5.83332C5.83332 10.3194 6.23957 11.3021 7.05207 12.1146C7.86457 12.9271 8.84721 13.3333 9.99999 13.3333C11.1528 13.3333 12.1354 12.9271 12.9479 12.1146C13.7604 11.3021 14.1667 10.3194 14.1667 9.16666H15.8333C15.8333 10.625 15.3611 11.9028 14.4167 13C13.4722 14.0972 12.2778 14.7431 10.8333 14.9375V17.5H9.16666Z" fill="white"/>
</svg>
